<svg width="31" height="30" viewBox="0 0 31 30" fill="none" xmlns="http://www.w3.org/2000/svg">
<path d="M15.5031 3.09766C19.4219 3.09766 19.9563 3.09766 21.5594 3.09766C22.9844 3.09766 23.6969 3.44766 24.2312 3.62266C24.9437 3.97266 25.4781 4.14766 26.0125 4.67266C26.5469 5.19766 26.9031 5.72266 27.0813 6.42266C27.2594 6.94766 27.4375 7.64766 27.6156 9.04766C27.6156 10.6227 27.6156 10.9727 27.6156 14.9977C27.6156 19.0227 27.6156 19.3727 27.6156 20.9477C27.6156 22.3477 27.2594 23.0477 27.0813 23.5727C26.725 24.2727 26.5469 24.7977 26.0125 25.3227C25.4781 25.8477 24.9437 26.1977 24.2312 26.3727C23.6969 26.5477 22.9844 26.7227 21.5594 26.8977C19.9563 26.8977 19.6 26.8977 15.5031 26.8977C11.4062 26.8977 11.05 26.8977 9.44688 26.8977C8.02188 26.8977 7.30938 26.5477 6.775 26.3727C6.0625 26.0227 5.52813 25.8477 4.99375 25.3227C4.45938 24.7977 4.10313 24.2727 3.925 23.5727C3.74688 23.0477 3.56875 22.3477 3.39062 20.9477C3.39062 19.3727 3.39062 19.0227 3.39062 14.9977C3.39062 10.9727 3.39062 10.6227 3.39062 9.04766C3.39062 7.64766 3.74688 6.94766 3.925 6.42266C4.28125 5.72266 4.45938 5.19766 4.99375 4.67266C5.52813 4.14766 6.0625 3.79766 6.775 3.62266C7.30938 3.44766 8.02188 3.27266 9.44688 3.09766C11.05 3.09766 11.5844 3.09766 15.5031 3.09766ZM15.5031 0.472656C11.4062 0.472656 11.05 0.472656 9.44688 0.472656C7.84375 0.472656 6.775 0.822657 5.88438 1.17266C4.99375 1.52266 4.10313 2.04766 3.2125 2.92266C2.32188 3.79766 1.96563 4.49766 1.43125 5.54766C1.075 6.42266 0.896875 7.47266 0.71875 9.04766C0.71875 10.6227 0.71875 11.1477 0.71875 14.9977C0.71875 19.0227 0.71875 19.3727 0.71875 20.9477C0.71875 22.5227 1.075 23.5727 1.43125 24.4477C1.7875 25.3227 2.32188 26.1977 3.2125 27.0727C4.10313 27.9477 4.81563 28.2977 5.88438 28.8227C6.775 29.1727 7.84375 29.3477 9.44688 29.5227C11.05 29.5227 11.5844 29.5227 15.5031 29.5227C19.4219 29.5227 19.9563 29.5227 21.5594 29.5227C23.1625 29.5227 24.2312 29.1727 25.1219 28.8227C26.0125 28.4727 26.9031 27.9477 27.7937 27.0727C28.6844 26.1977 29.0406 25.4977 29.575 24.4477C29.9313 23.5727 30.1094 22.5227 30.2875 20.9477C30.2875 19.3727 30.2875 18.8477 30.2875 14.9977C30.2875 11.1477 30.2875 10.6227 30.2875 9.04766C30.2875 7.47266 29.9313 6.42266 29.575 5.54766C29.2188 4.67266 28.6844 3.79766 27.7937 2.92266C26.9031 2.04766 26.1906 1.69766 25.1219 1.17266C24.2312 0.822657 23.1625 0.647656 21.5594 0.472656C19.9563 0.472656 19.6 0.472656 15.5031 0.472656Z" fill="white"/>
<path d="M15.5031 7.47266C11.2281 7.47266 7.84375 10.7977 7.84375 14.9977C7.84375 19.1977 11.2281 22.5227 15.5031 22.5227C19.7781 22.5227 23.1625 19.1977 23.1625 14.9977C23.1625 10.7977 19.7781 7.47266 15.5031 7.47266ZM15.5031 19.8977C12.8313 19.8977 10.5156 17.7977 10.5156 14.9977C10.5156 12.3727 12.6531 10.0977 15.5031 10.0977C18.175 10.0977 20.4906 12.1977 20.4906 14.9977C20.4906 17.6227 18.175 19.8977 15.5031 19.8977Z" fill="white"/>
<path d="M23.3406 9.04766C24.3244 9.04766 25.1219 8.26416 25.1219 7.29766C25.1219 6.33116 24.3244 5.54766 23.3406 5.54766C22.3569 5.54766 21.5594 6.33116 21.5594 7.29766C21.5594 8.26416 22.3569 9.04766 23.3406 9.04766Z" fill="white"/>
</svg>
