<svg width="29" height="24" viewBox="0 0 29 24" fill="none" xmlns="http://www.w3.org/2000/svg">
<path d="M28.75 3.25C27.6812 3.775 26.6125 3.95 25.3656 4.125C26.6125 3.425 27.5031 2.375 27.8594 0.975C26.7906 1.675 25.5437 2.025 24.1187 2.375C23.05 1.325 21.4469 0.625 19.8438 0.625C16.1031 0.625 13.2531 4.125 14.1438 7.625C9.33438 7.45 5.05938 5.175 2.03125 1.675C0.428125 4.3 1.31875 7.625 3.8125 9.375C2.92188 9.375 2.03125 9.025 1.14062 8.675C1.14062 11.3 3.1 13.75 5.77188 14.45C4.88125 14.625 3.99063 14.8 3.1 14.625C3.8125 16.9 5.95 18.65 8.62187 18.65C6.48437 20.225 3.27813 21.1 0.25 20.75C2.92188 22.325 5.95 23.375 9.15625 23.375C20.0219 23.375 26.0781 14.45 25.7219 6.225C26.9687 5.525 28.0375 4.475 28.75 3.25Z" fill="white"/>
</svg>
