<svg width="239" height="229" viewBox="0 0 239 229" fill="none" xmlns="http://www.w3.org/2000/svg">
<path d="M158.804 -51.4835C168.039 -73.3279 180.506 -88.014 203.455 -89.538C232.361 -91.4777 253.925 -71.7577 255.264 -41.7852C255.633 -33.1952 254.386 -26.5911 267.5 -26.4525C294.836 -26.1292 313.398 -10.9352 317.923 11.5558C322.633 34.9242 311.828 53.9514 286.755 66.5593C285.231 67.3444 283.846 68.4528 281.306 70.1615C298.807 76.2115 311.135 86.6949 316.584 103.967C320.509 116.39 319.447 128.49 313.121 139.805C303.332 157.354 288.002 166.037 268.054 165.205C257.988 164.79 255.402 168.161 255.264 178.137C254.894 203.722 239.149 223.857 218.416 227.829C193.343 232.586 175.288 222.888 162.683 198.041C161.667 196.055 160.328 194.254 158.619 191.576C150.723 212.774 138.025 226.49 115.261 228.337C94.9898 230 79.8444 222.056 69.3164 204.876C64.191 196.563 62.4363 187.188 63.129 177.721C63.7754 168.715 61.1896 164.236 51.5852 165.39C24.4804 168.623 3.84013 145.624 0.977275 127.982C-3.40936 101.058 6.70299 84.1087 36.763 69.7921C19.0317 61.8025 4.34806 51.2728 1.02345 31.1372C-4.33286 -1.09826 15.661 -25.5751 49.0456 -26.5449C59.2964 -26.822 63.129 -28.4846 63.406 -39.8917C64.0525 -66.77 80.2599 -86.0743 102.47 -89.3533C128.144 -93.0941 147.537 -80.6247 158.942 -51.4835H158.804Z" fill="#FFBFD2"/>
</svg>
