<svg width="40" height="32" viewBox="0 0 40 32" fill="none" xmlns="http://www.w3.org/2000/svg">
<g clip-path="url(#clip0_3181_6699)">
<path d="M40 5.45411V31.987C39.8962 31.991 39.7924 32 39.6876 32C26.5811 32 13.4737 32 0.367224 32C0.241878 32 0.117512 31.987 0 31.98V5.46712C0.188019 5.46712 0.343722 5.46712 0.498445 5.46712C4.01596 5.46712 7.53348 5.46312 11.052 5.47513C11.3516 5.47613 11.5152 5.37904 11.6718 5.1228C12.6589 3.50929 13.6686 1.91079 14.6586 0.299281C14.7928 0.0800751 14.9338 0 15.1874 0C18.3798 0.0100094 21.5722 0.0100094 24.7636 0C25.0329 0 25.1798 0.0900845 25.3208 0.3203C26.3167 1.94282 27.3332 3.55333 28.3301 5.17585C28.4652 5.39606 28.6082 5.47413 28.8609 5.47313C31.6097 5.46312 34.3585 5.46813 37.1082 5.46612C38.0718 5.46612 39.0364 5.45812 40 5.45411ZM19.9731 27.3356C24.5776 27.3546 28.3595 23.495 28.383 18.7516C28.4065 14.0382 24.6295 10.1685 19.9946 10.1585C15.3666 10.1485 11.6004 13.9871 11.5847 18.7296C11.569 23.443 15.3451 27.3156 19.9731 27.3356ZM32.8494 10.1545V12.5327H35.1859V10.1545H32.8494Z" fill="#343F52"/>
<path d="M26.0366 18.7454C26.0297 22.1627 23.2917 24.9573 19.9691 24.9393C16.6268 24.9202 13.8996 22.1106 13.9299 18.7164C13.9603 15.2922 16.6425 12.5606 19.9779 12.5566C23.324 12.5526 26.0434 15.3302 26.0366 18.7454Z" fill="#343F52"/>
</g>
<defs>
<clipPath id="clip0_3181_6699">
<rect width="40" height="32" fill="white"/>
</clipPath>
</defs>
</svg>
