<svg width="38" height="36" viewBox="0 0 38 36" fill="none" xmlns="http://www.w3.org/2000/svg">
<g clip-path="url(#clip0_3181_6703)">
<path d="M0 14.0817C0.0554167 13.8798 0.103906 13.6749 0.169219 13.4769C0.610573 12.1341 1.86339 11.2011 3.27651 11.1762C4.0276 11.1633 4.7787 11.1742 5.5476 11.1742V15.6344H3.3626V17.8684H34.6423V15.6612H32.4554V11.2011C33.344 11.2011 34.2277 11.1205 35.0896 11.219C36.5681 11.3881 37.6052 12.4176 37.9307 13.8718C37.9466 13.9434 37.9762 14.0121 38 14.0817V31.3145C36.6522 31.3145 35.3034 31.3076 33.9556 31.3205C33.7032 31.3225 33.5964 31.2618 33.532 30.9982C33.0452 28.984 32.5345 26.9747 32.0447 24.9615C31.9784 24.69 31.8755 24.5915 31.5806 24.5925C23.1939 24.6024 14.8071 24.6024 6.42042 24.5925C6.12453 24.5925 6.0226 24.69 5.9563 24.9615C5.46646 26.9747 4.95484 28.984 4.46896 30.9982C4.40562 31.2618 4.29776 31.3225 4.04542 31.3205C2.6976 31.3076 1.3488 31.3145 0.000989583 31.3145C0 25.5702 0 19.826 0 14.0817ZM26.884 22.3425H29.071V20.1512H26.884V22.3425ZM33.5271 22.3455V20.1473H31.347V22.3455H33.5271Z" fill="#343F52"/>
<path d="M7.82031 0H21.2935V8.92128H30.1859V15.6304H7.82031V0Z" fill="#343F52"/>
<path d="M23.5391 6.66623V0.810547C25.4727 2.75415 27.438 4.72859 29.3657 6.66623H23.5391Z" fill="#343F52"/>
<path d="M5.57031 35.7649C6.31547 32.7709 7.05172 29.8118 7.78896 26.8496H30.208C30.9462 29.8157 31.6824 32.7749 32.4256 35.7649H5.57031Z" fill="#343F52"/>
</g>
<defs>
<clipPath id="clip0_3181_6703">
<rect width="38" height="35.7647" fill="white"/>
</clipPath>
</defs>
</svg>
