<svg width="146" height="44" viewBox="0 0 146 44" fill="none" xmlns="http://www.w3.org/2000/svg">
<path d="M42.6604 7.94141H39.0547V24.4707H42.6604V7.94141Z" fill="white"/>
<path d="M27.0416 11.7813L24.4922 9.22829L28.7277 4.98684C29.1541 4.55977 29.7322 4.32031 30.3356 4.32031H39.0504V7.93106H32.0038C31.2893 7.93106 30.6039 8.21577 30.0984 8.72109L27.0416 11.7822V11.7813Z" fill="white"/>
<path d="M14.621 43.9735H5.90625V40.3628H12.9528C13.6674 40.3628 14.3527 40.0781 14.8583 39.5727L18.5976 35.8281L21.147 38.3811L16.228 43.307C15.8016 43.7341 15.2235 43.9735 14.6201 43.9735H14.621Z" fill="white"/>
<path d="M5.90254 23.8223H2.29688V40.3516H5.90254V23.8223Z" fill="white"/>
<path d="M10.1028 0.470199C10.4144 -0.156733 11.3078 -0.156733 11.6194 0.470199L14.3383 5.93158C14.4616 6.17952 14.6979 6.3511 14.9709 6.39258L20.9979 7.2948C21.6899 7.3985 21.9648 8.24887 21.4668 8.7391L17.1202 13.0164C16.9225 13.2106 16.8331 13.4887 16.8783 13.7621L17.8846 19.7816C18.0004 20.4717 17.2784 20.9977 16.658 20.6744L11.2523 17.8565C11.0075 17.7283 10.7147 17.7283 10.47 17.8565L5.06429 20.6744C4.44389 20.9977 3.72182 20.4726 3.83761 19.7816L4.844 13.7621C4.88919 13.4887 4.79975 13.2106 4.60205 13.0164L0.254546 8.7391C-0.24441 8.24887 0.0314278 7.3985 0.723376 7.2948L6.75039 6.39258C7.0234 6.35205 7.2597 6.17952 7.38302 5.93158L10.1028 0.470199Z" fill="white"/>
<path d="M32.5989 23.8359C27.0388 23.8359 22.5312 28.3489 22.5312 33.9178C22.5312 39.4866 27.0388 43.9996 32.5989 43.9996C38.1589 43.9996 42.6665 39.4857 42.6665 33.9178C42.6665 28.3498 38.1589 23.8359 32.5989 23.8359ZM35.8515 28.1726C36.9511 28.1726 37.8426 29.0645 37.8426 30.1665C37.8426 31.2686 36.9511 32.1605 35.8515 32.1605C34.7519 32.1605 33.8594 31.2677 33.8594 30.1665C33.8594 29.0654 34.751 28.1726 35.8515 28.1726ZM29.4404 28.1726C30.54 28.1726 31.4315 29.0645 31.4315 30.1665C31.4315 31.2686 30.54 32.1605 29.4404 32.1605C28.3408 32.1605 27.4493 31.2677 27.4493 30.1665C27.4493 29.0654 28.3408 28.1726 29.4404 28.1726ZM32.597 39.942C29.4856 39.942 26.9635 37.4163 26.9635 34.3005H38.2305C38.2305 37.4163 35.7084 39.942 32.597 39.942Z" fill="white"/>
<path d="M64.7426 25.751C64.7426 26.9003 64.3407 27.8423 63.5368 28.5771C62.7392 29.3057 61.5961 29.6699 60.1077 29.6699H53.5886V15.6803H59.9381C61.2884 15.6803 62.3467 16.0195 63.1129 16.6978C63.8853 17.376 64.2716 18.2867 64.2716 19.4297C64.2716 20.0766 64.1114 20.6638 63.7911 21.1914C63.4708 21.7127 63.0218 22.1209 62.444 22.4161C63.16 22.6547 63.7221 23.0724 64.1303 23.669C64.5385 24.2656 64.7426 24.9596 64.7426 25.751ZM56.1134 21.5871H59.3729C60.1202 21.5871 60.6855 21.4143 61.0686 21.0689C61.458 20.7172 61.6527 20.2273 61.6527 19.5993C61.6527 19.0089 61.4737 18.5505 61.1157 18.2239C60.7577 17.891 60.2553 17.7246 59.6084 17.7246H56.1134V21.5871ZM62.0578 25.5437C62.0578 24.8717 61.8536 24.3598 61.4454 24.0081C61.0435 23.6564 60.4751 23.4806 59.7403 23.4806H56.1134V27.6068H59.6649C60.4311 27.6068 61.0215 27.4247 61.436 27.0604C61.8505 26.6899 62.0578 26.1843 62.0578 25.5437ZM75.7741 26.7966H69.6979L68.6427 29.6699H65.8637L71.3559 15.6803H74.0408L79.7119 29.6699H76.8387L75.7741 26.7966ZM75.0299 24.7901L72.7313 18.6101L70.4515 24.7901H75.0299ZM81.6997 15.6803H84.2621V27.3525H91.3087V29.6699H81.6997V15.6803ZM102.661 26.7966H96.5842L95.5291 29.6699H92.7501L98.2423 15.6803H100.927L106.598 29.6699H103.725L102.661 26.7966ZM101.916 24.7901L99.6177 18.6101L97.3379 24.7901H101.916ZM122.171 17.8848H117.969V29.6699H115.397V17.8848H111.177V15.6803H122.171V17.8848ZM124.205 29.6699V15.6803H126.768V29.6699H124.205ZM129.914 15.6803H132.477V27.3525H139.523V29.6699H129.914V15.6803ZM141.86 29.6699V15.6803H144.422V29.6699H141.86Z" fill="white"/>
</svg>
