<svg width="29" height="24" viewBox="0 0 29 24" fill="none" xmlns="http://www.w3.org/2000/svg">
<path d="M2.42798 10.4895C10.0784 7.21484 15.1798 5.05597 17.7324 4.01291C25.0203 1.03477 26.5347 0.51743 27.5218 0.500166C27.7389 0.496591 28.2243 0.549448 28.5387 0.800106C28.8042 1.01176 28.8772 1.29767 28.9122 1.49833C28.9472 1.699 28.9907 2.15613 28.9561 2.51331C28.5611 6.59016 26.8522 16.4836 25.9829 21.0498C25.615 22.9819 24.8906 23.6297 24.1894 23.6931C22.6654 23.8309 21.5082 22.7036 20.0321 21.753C17.7224 20.2655 16.4175 19.3395 14.1755 17.888C11.5845 16.2105 13.2642 15.2885 14.7408 13.7818C15.1272 13.3875 21.8419 7.38705 21.9719 6.84272C21.9881 6.77465 22.0032 6.52089 21.8498 6.38689C21.6963 6.25289 21.4698 6.29872 21.3064 6.33516C21.0748 6.38681 17.3849 8.78287 10.2369 13.5233C9.18958 14.2299 8.24093 14.5742 7.39097 14.5561C6.45396 14.5362 4.65152 14.0356 3.31159 13.6077C1.66812 13.0828 0.361914 12.8053 0.475654 11.914C0.534898 11.4497 1.18567 10.9749 2.42798 10.4895Z" fill="white"/>
</svg>
