<svg width="146" height="44" viewBox="0 0 146 44" fill="none" xmlns="http://www.w3.org/2000/svg">
<path d="M42.6594 7.94189H39.0537V24.4712H42.6594V7.94189Z" fill="#00AF54"/>
<path d="M27.0435 11.7822L24.4941 9.22927L28.7296 4.98782C29.1561 4.56075 29.7341 4.32129 30.3376 4.32129H39.0524V7.93204H32.0058C31.2912 7.93204 30.6059 8.21675 30.1003 8.72207L27.0435 11.7832V11.7822Z" fill="#00AF54"/>
<path d="M14.6161 43.973H5.90137V40.3623H12.9479C13.6625 40.3623 14.3478 40.0776 14.8534 39.5723L18.5927 35.8276L21.1421 38.3806L16.2232 43.3065C15.7967 43.7336 15.2187 43.973 14.6152 43.973H14.6161Z" fill="#00AF54"/>
<path d="M5.89863 23.8218H2.29297V40.3511H5.89863V23.8218Z" fill="#00AF54"/>
<path d="M10.1028 0.470199C10.4144 -0.156733 11.3078 -0.156733 11.6194 0.470199L14.3383 5.93158C14.4616 6.17952 14.6979 6.3511 14.9709 6.39258L20.9979 7.2948C21.6899 7.3985 21.9648 8.24887 21.4668 8.7391L17.1202 13.0164C16.9225 13.2106 16.8331 13.4887 16.8783 13.7621L17.8846 19.7816C18.0004 20.4717 17.2784 20.9977 16.658 20.6744L11.2523 17.8565C11.0075 17.7283 10.7147 17.7283 10.47 17.8565L5.06429 20.6744C4.44389 20.9977 3.72182 20.4726 3.83761 19.7816L4.844 13.7621C4.88919 13.4887 4.79975 13.2106 4.60205 13.0164L0.254546 8.7391C-0.24441 8.24887 0.0314278 7.3985 0.723376 7.2948L6.75039 6.39258C7.0234 6.35205 7.2597 6.17952 7.38302 5.93158L10.1028 0.470199Z" fill="#00AF54"/>
<path d="M32.6018 23.8364C27.0417 23.8364 22.5342 28.3494 22.5342 33.9182C22.5342 39.4871 27.0417 44.0001 32.6018 44.0001C38.1619 44.0001 42.6694 39.4862 42.6694 33.9182C42.6694 28.3503 38.1619 23.8364 32.6018 23.8364ZM35.8544 28.1731C36.954 28.1731 37.8455 29.0649 37.8455 30.167C37.8455 31.2691 36.954 32.161 35.8544 32.161C34.7548 32.161 33.8624 31.2682 33.8624 30.167C33.8624 29.0659 34.7539 28.1731 35.8544 28.1731ZM29.4433 28.1731C30.5429 28.1731 31.4344 29.0649 31.4344 30.167C31.4344 31.2691 30.5429 32.161 29.4433 32.161C28.3437 32.161 27.4522 31.2682 27.4522 30.167C27.4522 29.0659 28.3437 28.1731 29.4433 28.1731ZM32.5999 39.9424C29.4885 39.9424 26.9664 37.4168 26.9664 34.301H38.2334C38.2334 37.4168 35.7113 39.9424 32.5999 39.9424Z" fill="#00AF54"/>
<path d="M64.7416 25.7505C64.7416 26.8998 64.3397 27.8418 63.5358 28.5766C62.7382 29.3052 61.5952 29.6694 60.1067 29.6694H53.5877V15.6798H59.9371C61.2874 15.6798 62.3457 16.019 63.1119 16.6973C63.8844 17.3756 64.2706 18.2862 64.2706 19.4292C64.2706 20.0761 64.1105 20.6633 63.7902 21.1909C63.4699 21.7122 63.0208 22.1204 62.443 22.4156C63.159 22.6542 63.7211 23.0719 64.1293 23.6685C64.5375 24.2652 64.7416 24.9591 64.7416 25.7505ZM56.1124 21.5866H59.3719C60.1193 21.5866 60.6845 21.4139 61.0676 21.0684C61.457 20.7167 61.6517 20.2269 61.6517 19.5988C61.6517 19.0085 61.4727 18.55 61.1147 18.2234C60.7567 17.8905 60.2543 17.7241 59.6074 17.7241H56.1124V21.5866ZM62.0568 25.5432C62.0568 24.8712 61.8527 24.3594 61.4444 24.0077C61.0425 23.656 60.4741 23.4801 59.7393 23.4801H56.1124V27.6063H59.6639C60.4302 27.6063 61.0205 27.4242 61.435 27.0599C61.8495 26.6894 62.0568 26.1838 62.0568 25.5432ZM75.7732 26.7962H69.6969L68.6418 29.6694H65.8627L71.3549 15.6798H74.0398L79.711 29.6694H76.8377L75.7732 26.7962ZM75.0289 24.7896L72.7303 18.6097L70.4505 24.7896H75.0289ZM81.6987 15.6798H84.2611V27.352H91.3077V29.6694H81.6987V15.6798ZM102.66 26.7962H96.5833L95.5281 29.6694H92.7491L98.2413 15.6798H100.926L106.597 29.6694H103.724L102.66 26.7962ZM101.915 24.7896L99.6167 18.6097L97.3369 24.7896H101.915ZM122.17 17.8843H117.968V29.6694H115.396V17.8843H111.176V15.6798H122.17V17.8843ZM124.204 29.6694V15.6798H126.767V29.6694H124.204ZM129.913 15.6798H132.476V27.352H139.522V29.6694H129.913V15.6798ZM141.859 29.6694V15.6798H144.421V29.6694H141.859Z" fill="#00AF54"/>
</svg>
