<svg width="38" height="38" viewBox="0 0 38 38" fill="none" xmlns="http://www.w3.org/2000/svg">
<g clip-path="url(#clip0_3181_6690)">
<path d="M37.9976 1.25674V1.99863C37.4985 3.93517 36.3634 5.54167 35.2031 7.10447C32.1432 11.2258 29.0591 15.3331 25.6975 19.2201C25.2226 19.7687 24.7309 20.3042 24.2337 20.8341H24.2346L22.3899 22.8059L20.6672 24.4543L20.3916 24.7192L20.3832 24.7267C19.3272 25.7084 18.2703 26.693 17.1706 27.7165C16.2012 24.6411 14.2243 22.6423 11.1719 21.6513C12.0518 20.7132 12.9085 19.7993 13.7652 18.8864L14.4599 18.1454L16.2059 16.3716H16.2068C16.2105 16.366 16.2143 16.3614 16.218 16.3576C19.249 13.3324 22.2391 10.2645 25.326 7.29692C27.9184 4.80536 30.7697 2.62059 33.9115 0.845822C34.5168 0.503697 35.191 0.246174 35.8652 0.0723226C36.8457 -0.180552 37.5441 0.239666 37.9296 1.17679C37.9427 1.20747 37.9743 1.22978 37.9976 1.25674Z" fill="#343F52"/>
<path d="M2.08866 37.9999C1.40051 37.9376 0.71236 37.8744 0 37.8093C0.0139679 37.7535 0.0111743 37.6866 0.0428347 37.6457C1.56999 35.6757 1.78509 33.345 1.90987 30.9817C1.95364 30.1459 1.97785 29.2906 2.17898 28.4864C2.9677 25.345 6.00524 23.0394 9.46368 23.5674C12.2535 23.9932 14.1736 25.5337 14.9884 28.241C15.7101 30.6377 15.3628 32.8987 13.6112 34.8074C12.9687 35.5074 12.1446 35.976 11.2851 36.372C9.24858 37.3119 7.09008 37.7507 4.86733 37.9283C4.7081 37.9413 4.55072 37.9748 4.39242 37.999H2.08773L2.08866 37.9999Z" fill="#343F52"/>
</g>
<defs>
<clipPath id="clip0_3181_6690">
<rect width="38" height="38" fill="white"/>
</clipPath>
</defs>
</svg>
