<svg width="40" height="39" viewBox="0 0 40 39" fill="none" xmlns="http://www.w3.org/2000/svg">
<path d="M18.4073 1.89393C17.7698 2.54543 17.1042 3.22639 16.4229 3.92313C16.3885 3.78526 16.3573 3.66106 16.326 3.53687C15.8271 1.5603 14.0271 0.0815476 12.024 0.00366341C9.32917 -0.100533 7.12292 2.03076 7.11458 4.76407C7.10521 7.46055 7.10208 10.157 7.12187 12.8535C7.125 13.2598 7 13.5303 6.72083 13.8081C5.01562 15.5089 3.34062 17.2392 1.62812 18.9316C0.871875 19.68 0.204167 20.4609 0 21.5492V22.5754C0.216667 23.3837 0.570833 24.1015 1.17292 24.7077C5.50833 29.0703 9.82917 33.4465 14.1594 37.8144C14.3875 38.0459 14.6354 38.268 14.9073 38.4427C16.3469 39.3678 18.1187 39.1258 19.3958 37.8344C23.6469 33.537 27.8937 29.2345 32.149 24.9392C32.299 24.7877 32.4917 24.6509 32.6896 24.5814C33.7458 24.213 34.8104 23.8699 35.8708 23.5152C36.8677 23.1826 37.8625 22.8458 38.8167 22.5248C32.0229 15.6573 25.2385 8.79932 18.4073 1.89393ZM9.45729 10.657C9.45521 8.71091 9.45104 6.76486 9.45729 4.8188C9.46146 3.43373 10.475 2.37387 11.7854 2.3665C13.1177 2.36019 14.1323 3.41794 14.1417 4.82617C14.1448 5.27032 14.1479 5.79236 14.1479 6.35228C12.5896 7.91628 11.0698 9.44028 9.49479 11.0211C9.47604 10.8464 9.45729 10.7517 9.45729 10.657Z" fill="#343F52"/>
<path d="M39.9995 32.4449C39.9432 32.646 39.8932 32.8491 39.8307 33.0491C39.2214 34.9909 37.0953 36.015 35.2099 35.2761C33.3151 34.5341 32.3807 32.266 33.3255 30.4494C34.2984 28.5791 35.3932 26.7741 36.4609 24.8965C36.5432 25.0102 36.6078 25.0828 36.6557 25.1659C37.6005 26.8152 38.5547 28.4581 39.4786 30.1189C39.7036 30.5231 39.8297 30.9841 40.0005 31.4177V32.4439L39.9995 32.4449Z" fill="#343F52"/>
</svg>
